<svg xmlns="http://www.w3.org/2000/svg" viewBox="0 0 100 100" width="100" height="100">
  <defs>
    <linearGradient id="g" x1="0%" y1="0%" x2="100%" y2="100%">
      <stop offset="0%" style="stop-color:#66BB6A"/>
      <stop offset="100%" style="stop-color:#4CAF50"/>
    </linearGradient>
  </defs>
  <circle cx="50" cy="50" r="46" fill="url(#g)"/>
  <path d="M28 34 C28 34 28 68 28 68 C28 70 30 72 32 72 L48 72 C50 72 50 70 50 68 L50 34 C50 32 48 30 46 30 L32 30 C30 30 28 32 28 34 Z" fill="none" stroke="#fff" stroke-width="3" stroke-linejoin="round"/>
  <line x1="34" y1="40" x2="44" y2="40" stroke="#fff" stroke-width="2.5" stroke-linecap="round"/>
  <line x1="34" y1="48" x2="44" y2="48" stroke="#fff" stroke-width="2.5" stroke-linecap="round"/>
  <line x1="34" y1="56" x2="40" y2="56" stroke="#fff" stroke-width="2.5" stroke-linecap="round"/>
  <polygon points="58,38 58,62 74,50" fill="#fff"/>
</svg>
